<?xml version="1.0" encoding="UTF-8"?>
<svg version="1.1" xmlns="http://www.w3.org/2000/svg" width="1254" height="1254">
<path d="M0 0 C413.82 0 827.64 0 1254 0 C1254 413.82 1254 827.64 1254 1254 C840.18 1254 426.36 1254 0 1254 C0 840.18 0 426.36 0 0 Z " fill="#F50100" transform="translate(0,0)"/>
<path d="M0 0 C429.17581654 0 429.17581654 0 486 17 C486.73895508 17.2151123 487.47791016 17.43022461 488.23925781 17.65185547 C509.7060659 23.91586029 530.20424199 32.64379557 550 43 C550.63873047 43.33193359 551.27746094 43.66386719 551.93554688 44.00585938 C568.98644609 52.95541764 584.64815232 64.18942467 599 77 C599.83144531 77.721875 600.66289063 78.44375 601.51953125 79.1875 C612.60020325 88.92560269 622.96019235 99.33253345 632 111 C632.79792969 111.99257813 633.59585938 112.98515625 634.41796875 114.0078125 C640.99251981 122.24938576 646.6447946 130.9261819 652 140 C652.4448877 140.74604492 652.88977539 141.49208984 653.34814453 142.26074219 C668.42920073 167.77263903 678.0789647 196.04383604 683.8125 225.0625 C683.99530518 225.98023193 684.17811035 226.89796387 684.36645508 227.84350586 C684.98566256 231.21951779 685.51250945 234.60302832 686 238 C686.18792114 239.29874054 686.18792114 239.29874054 686.37963867 240.62371826 C688.70003796 257.16572998 689.47424729 273.47295447 689.39111328 290.16796875 C689.37500943 293.99775784 689.3910857 297.82649214 689.41015625 301.65625 C689.42808067 323.70805771 687.36358444 345.38209736 683 367 C682.86513184 367.69399902 682.73026367 368.38799805 682.59130859 369.10302734 C673.99406243 412.94204151 654.02883105 453.91103167 624 487 C623.48663086 487.57363281 622.97326172 488.14726563 622.44433594 488.73828125 C616.62479644 495.23886902 610.72607051 501.42347608 604 507 C603.10539063 507.7940625 602.21078125 508.588125 601.2890625 509.40625 C588.08253443 521.0601995 573.3879683 530.50749491 558 539 C555.95550944 540.20354916 553.91375892 541.41176701 551.875 542.625 C542.65738746 547.98974804 533.49554976 552.34570891 523.39453125 555.79296875 C520.40313217 556.85665381 517.57462933 558.06189081 514.6875 559.375 C507.28122136 562.55344383 499.48733566 564.49379935 491.71948242 566.58935547 C490.66865479 566.87311035 489.61782715 567.15686523 488.53515625 567.44921875 C487.590354 567.70018311 486.64555176 567.95114746 485.67211914 568.2097168 C482.99769645 568.95215693 482.99769645 568.95215693 480.49658203 570.02294922 C475.78977596 571.86498304 470.76859969 572.52830002 465.8125 573.4375 C464.62591797 573.65704346 463.43933594 573.87658691 462.21679688 574.1027832 C452.79529189 575.79186046 443.36320263 577.03449792 433.84301758 578.01147461 C432.34291138 578.16628296 432.34291138 578.16628296 430.8125 578.32421875 C429.95269531 578.40760498 429.09289062 578.49099121 428.20703125 578.5769043 C425.48620726 578.93585588 422.85802163 579.42209684 420.16882324 579.95689392 C413.50033503 581.17051583 406.85191436 581.69709121 400.09179688 582.11279297 C399.4159854 582.15481268 398.74017393 582.19683239 398.04388332 582.24012542 C378.86546582 583.39908185 359.66597887 583.2579777 340.46069336 583.20256042 C335.76383233 583.19093962 331.06699276 583.19062194 326.37011719 583.18920898 C312.74673194 583.17882616 299.12336458 583.15090429 285.5 583.125 C254.975 583.08375 224.45 583.0425 193 583 C193 673.75 193 764.5 193 858 C129.31 858 65.62 858 0 858 C0 574.86 0 291.72 0 0 Z " fill="#FDFBFB" transform="translate(323,202)"/>
<path d="M0 0 C27.43125 -0.061875 54.8625 -0.12375 83.125 -0.1875 C91.7477002 -0.21481201 100.37040039 -0.24212402 109.25439453 -0.27026367 C119.88256836 -0.28381348 119.88256836 -0.28381348 124.87716675 -0.28633118 C128.32376037 -0.28909676 131.77021168 -0.30021977 135.21676636 -0.31672668 C154.04164044 -0.40292947 172.41481543 -0.41930762 191 3 C192.38443635 3.22803062 193.76935981 3.45312885 195.15481567 3.67488098 C218.33228083 7.51611815 240.08425007 17.9560394 258 33 C258.6703125 33.51949219 259.340625 34.03898437 260.03125 34.57421875 C279.26721154 49.8318337 290.40244563 75.48616712 295 99 C295.17515137 99.77263184 295.35030273 100.54526367 295.53076172 101.34130859 C297.68897457 112.02455846 297.39691694 122.89910404 297.375 133.75 C297.37412384 134.80046509 297.37324768 135.85093018 297.37234497 136.93322754 C297.26933012 174.27094141 289.0665024 207.1343925 262.75 234.6875 C233.71430882 262.5908801 193.93852395 270.41207097 154.9621582 270.22705078 C153.22771558 270.22643586 151.49327247 270.22670892 149.75883007 270.2277813 C145.17901694 270.22822664 140.59931164 270.21676726 136.01952362 270.20256042 C131.69737974 270.19103797 127.37526004 270.19062707 123.05310059 270.18920898 C110.47288651 270.17877915 97.89269183 270.15085668 85.3125 270.125 C57.159375 270.08375 29.00625 270.0425 0 270 C0 180.9 0 91.8 0 0 Z " fill="#F50201" transform="translate(516,360)"/>
<path d="M0 0 C0.33 0 0.66 0 1 0 C1 20.79 1 41.58 1 63 C-19.79 63 -40.58 63 -62 63 C-62 62.67 -62 62.34 -62 62 C-61.00742188 61.79246094 -60.01484375 61.58492187 -58.9921875 61.37109375 C-39.81119893 57.12132825 -23.77142307 48.02187661 -12.34765625 31.62890625 C-8.43897234 25.41280588 -5.66420536 18.824613 -3 12 C-2.63648438 11.13632813 -2.27296875 10.27265625 -1.8984375 9.3828125 C-0.73594646 6.29968409 -0.38371997 3.26161976 0 0 Z " fill="#FDF8F9" transform="translate(1253,1191)"/>
<path d="M0 0 C21.45 0 42.9 0 65 0 C65 21.12 65 42.24 65 64 C64.67 64 64.34 64 64 64 C63.87625 63.18660156 63.7525 62.37320313 63.625 61.53515625 C59.92682197 40.98715458 49.38374937 24.18336672 32.2578125 12.05859375 C22.45742105 5.91010968 11.45683841 2.39319898 0 1 C0 0.67 0 0.34 0 0 Z " fill="#FDF9F9" transform="translate(1189,0)"/>
<path d="M0 0 C21.12 0 42.24 0 64 0 C60.45958891 1.77020554 58.96427793 2.22127414 55.25 2.625 C43.23429794 4.68391548 31.76595222 11.74155028 23 20 C22.24460937 20.70253906 21.48921875 21.40507812 20.7109375 22.12890625 C10.90305662 32.08845539 4.38688194 45.27542887 2 59 C1.66843802 60.66701996 1.33563822 62.33379597 1 64 C0.67 64 0.34 64 0 64 C0 42.88 0 21.76 0 0 Z " fill="#FDF9F9" transform="translate(0,0)"/>
<path d="M0 0 C0.33 0 0.66 0 1 0 C1.07476562 0.69222656 1.14953125 1.38445312 1.2265625 2.09765625 C3.68379711 20.38237263 12.65164783 37.20346085 27 49 C38.46986199 57.13371166 50.018615 62.33909079 64 64 C64 64.33 64 64.66 64 65 C42.88 65 21.76 65 0 65 C0 43.55 0 22.1 0 0 Z " fill="#FDF9F8" transform="translate(0,1189)"/>
<path d="M0 0 C2.64 0.33 5.28 0.66 8 1 C5 2.5 5 2.5 2 4 C1.67 93.43 1.34 182.86 1 275 C0.67 275 0.34 275 0 275 C0 184.25 0 93.5 0 0 Z " fill="#F31311" transform="translate(516,785)"/>
<path d="M0 0 C53.13 0 106.26 0 161 0 C161 0.33 161 0.66 161 1 C160.18847568 1.00331015 159.37695135 1.00662029 158.54083538 1.01003075 C138.81166536 1.09118508 119.08257274 1.18325254 99.35351086 1.28752708 C89.81275734 1.3376888 80.27201257 1.38413126 70.73120117 1.421875 C62.4172445 1.45477464 54.103355 1.49459453 45.7894724 1.54279006 C41.38569978 1.56807528 36.98197183 1.58985054 32.57814598 1.60334396 C28.43560195 1.61614602 24.293211 1.63818019 20.15075111 1.66738319 C18.62816138 1.67647353 17.10554699 1.68215259 15.58293152 1.68421364 C13.50813077 1.68752597 11.43376674 1.70297473 9.35905457 1.7215271 C7.61548314 1.72982324 7.61548314 1.72982324 5.83668804 1.73828697 C2.7966646 1.79184127 2.7966646 1.79184127 0 4 C0 2.68 0 1.36 0 0 Z " fill="#F40E0F" transform="translate(518,361)"/>
<path d="M0 0 C0.66 0.99 1.32 1.98 2 3 C-0.13782367 6.31731259 -2.21930491 9.21930491 -5 12 C-6.17574711 14.09989652 -6.17574711 14.09989652 -7 16 C-8.32 15.34 -9.64 14.68 -11 14 C-10.45730469 13.40832031 -9.91460938 12.81664062 -9.35546875 12.20703125 C-8.64003906 11.41683594 -7.92460938 10.62664063 -7.1875 9.8125 C-6.47980469 9.03519531 -5.77210938 8.25789062 -5.04296875 7.45703125 C-3.06664371 5.08015085 -1.51417406 2.68921134 0 0 Z " fill="#F61B1A" transform="translate(962,669)"/>
<path d="M0 0 C0 0.99 0 1.98 0 3 C-5.67989374 5.49118146 -8.94474232 6.38766322 -15 5 C-10.37795091 2.49639008 -5.30049345 0 0 0 Z " fill="#F8221E" transform="translate(838,761)"/>
<path d="M0 0 C-3.00617269 3.00617269 -5.82381598 2.59585316 -10 3 C-10.33 2.34 -10.66 1.68 -11 1 C-6.87831311 -0.62950412 -4.29299643 -1.26264601 0 0 Z " fill="#F9201B" transform="translate(815,770)"/>
<path d="M0 0 C0.99 0.66 1.98 1.32 3 2 C0.42786866 3.61949011 -0.67669159 4.04408751 -3.75 3.625 C-4.4925 3.41875 -5.235 3.2125 -6 3 C-6.33 3.66 -6.66 4.32 -7 5 C-7.66 4.34 -8.32 3.68 -9 3 C-7.56879256 2.44191911 -6.12969645 1.90403538 -4.6875 1.375 C-3.88699219 1.07335937 -3.08648438 0.77171875 -2.26171875 0.4609375 C-1.51535156 0.30882812 -0.76898437 0.15671875 0 0 Z " fill="#F9302B" transform="translate(852,755)"/>
<path d="M0 0 C1.1875 1.625 1.1875 1.625 2 4 C0.625 7.25 0.625 7.25 -1 10 C-1.66 9.67 -2.32 9.34 -3 9 C-1.125 2.25 -1.125 2.25 0 0 Z " fill="#F71110" transform="translate(797,563)"/>
<path d="M0 0 C-0.33 0.66 -0.66 1.32 -1 2 C-4.96 2 -8.92 2 -13 2 C-13 1.67 -13 1.34 -13 1 C-11.58622218 0.63447197 -10.16879424 0.28304505 -8.75 -0.0625 C-7.96109375 -0.25972656 -7.1721875 -0.45695312 -6.359375 -0.66015625 C-3.89605178 -1.01497267 -2.34395868 -0.76877544 0 0 Z " fill="#FCD9D4" transform="translate(1204,1252)"/>
<path d="M0 0 C0 0.66 0 1.32 0 2 C-6.45 6.09326923 -6.45 6.09326923 -9.234375 5.62109375 C-9.81703125 5.41613281 -10.3996875 5.21117187 -11 5 C-9.54462432 4.16151196 -8.08559627 3.32936066 -6.625 2.5 C-5.81289063 2.0359375 -5.00078125 1.571875 -4.1640625 1.09375 C-2 0 -2 0 0 0 Z " fill="#F93330" transform="translate(883,740)"/>
<path d="M0 0 C0.99 0.33 1.98 0.66 3 1 C1.1875 3.5 1.1875 3.5 -1 6 C-1.99 6 -2.98 6 -4 6 C-2.25 1.125 -2.25 1.125 0 0 Z " fill="#FCDEDE" transform="translate(936,696)"/>
<path d="M0 0 C4.29 0.33 8.58 0.66 13 1 C8.99186716 3.00406642 7.33794733 3.46148376 3 3 C2.01 2.01 1.02 1.02 0 0 Z " fill="#F91211" transform="translate(681,360)"/>
<path d="M0 0 C0.66 0.33 1.32 0.66 2 1 C1.88590407 2.45922693 1.75834456 3.91740598 1.625 5.375 C1.55539062 6.18710937 1.48578125 6.99921875 1.4140625 7.8359375 C1 10 1 10 -1 12 C-2.09898702 8.70303895 -1.87124444 7.59505097 -1.0625 4.3125 C-0.86785156 3.50425781 -0.67320312 2.69601562 -0.47265625 1.86328125 C-0.31667969 1.24839844 -0.16070313 0.63351562 0 0 Z " fill="#F31D1E" transform="translate(1006,566)"/>
<path d="M0 0 C0.99 0 1.98 0 3 0 C3.1875 2.375 3.1875 2.375 3 5 C2.01 5.66 1.02 6.32 0 7 C-1.04449911 3.86650268 -0.93423645 3.01031744 0 0 Z " fill="#F41314" transform="translate(1002,583)"/>
<path d="M0 0 C-0.33 0.66 -0.66 1.32 -1 2 C-3.97 1.67 -6.94 1.34 -10 1 C-10 0.67 -10 0.34 -10 0 C-3.375 -1.125 -3.375 -1.125 0 0 Z " fill="#F81814" transform="translate(784,777)"/>
<path d="M0 0 C1.65 1.65 3.3 3.3 5 5 C4.34 5.66 3.68 6.32 3 7 C1.68 5.02 0.36 3.04 -1 1 C-0.67 0.67 -0.34 0.34 0 0 Z " fill="#F81413" transform="translate(952,307)"/>
</svg>
